<?xml version="1.0" encoding="utf-8"?>
<svg viewBox="1.012 1.169 18.1033 18.4472" xmlns="http://www.w3.org/2000/svg">
  <path d="M 12.055 10.779 L 11.005 11.909 L 7.103 11.519 L 9.553 8.884 L 12.055 10.779 Z M 13.172 10.342 L 9.835 7.816 L 14.384 2.923 C 15.461 1.763 17.525 2.092 18.098 3.514 C 18.364 4.174 18.221 4.911 17.72 5.449 L 13.172 10.343 L 13.172 10.342 Z M 16.392 4.141 C 16.162 3.967 15.818 3.994 15.625 4.202 L 15.275 4.578 C 15.006 4.868 15.185 5.313 15.597 5.378 C 15.789 5.409 15.984 5.345 16.109 5.21 L 16.459 4.834 C 16.653 4.626 16.623 4.316 16.392 4.141 Z" style="transform-origin: 12.6663px 7.0644px;" transform="matrix(0.97814810276, -0.207911998034, 0.207911998034, 0.97814810276, 4.49067e-7, 7.29499e-7)"/>
  <path style="stroke: rgb(0, 0, 0); stroke-linecap: round; fill: none; transform-origin: 5.08903px 10.1803px;" d="M 2.979 13.009 C -0.066 10.502 5.084 5.532 8.129 8.039" transform="matrix(0.848048090935, -0.529918909073, 0.529918909073, 0.848048090935, -4.87226e-7, 4.20431e-7)"/>
  <path style="stroke: rgb(0, 0, 0); stroke-linecap: round; fill: none; transform-origin: 12.069px 15.9183px;" d="M 9.959 18.747 C 6.914 16.24 12.064 11.27 15.109 13.777" transform="matrix(-0.9396930933, -0.342020004988, 0.342020004988, -0.9396930933, 0.000004317241, -6.93104e-7)"/>
  <path style="fill: rgb(216, 216, 216); stroke: rgb(0, 0, 0); stroke-linecap: round; paint-order: stroke;" d="M 5.352 10.323 L 7.86 10.458"/>
  <path style="fill: rgb(216, 216, 216); stroke: rgb(0, 0, 0); stroke-linecap: round; paint-order: stroke; transform-origin: 11.531px 15.0685px;" d="M 10.277 15.001 L 12.785 15.136" transform="matrix(0.438371002674, 0.89879399538, -0.89879399538, 0.438371002674, 2.19883e-7, 0.000001261872)"/>
</svg>